<svg xmlns="http://www.w3.org/2000/svg" xml:space="preserve" fill-rule="evenodd" stroke-linejoin="round" stroke-miterlimit="2" clip-rule="evenodd" viewBox="0 0 2100 2100"><path d="M1050 .003c579.518 0 1050.012 470.495 1050.012 1050.013 0 579.498-470.494 1049.991-1050.012 1049.991C470.502 2100.007.01 1629.514.01 1050.016.009 470.498 470.502.003 1050 .003Zm0 280.001c424.979 0 770.006 345.034 770.006 770.012 0 424.959-345.027 769.986-770.006 769.986-424.978 0-769.985-345.027-769.985-769.986 0-424.978 345.007-770.012 769.985-770.012Z"/><circle cx="1026.92" cy="932.128" r="155.595" transform="rotate(45 1100.535 922.45) scale(1.12471)"/><circle cx="1026.92" cy="932.128" r="155.595" transform="rotate(45 1523.022 1097.45) scale(1.12471)"/><circle cx="1026.92" cy="932.128" r="155.595" transform="rotate(45 678.047 747.45) scale(1.12471)"/><circle cx="1026.92" cy="932.128" r="155.595" transform="rotate(45 1275.535 499.963) scale(1.12471)"/><circle cx="1026.92" cy="932.128" r="155.595" transform="rotate(45 1698.022 674.963) scale(1.12471)"/><circle cx="1026.92" cy="932.128" r="155.595" transform="rotate(45 853.047 324.963) scale(1.12471)"/><circle cx="1026.92" cy="932.128" r="155.595" transform="rotate(45 925.535 1344.938) scale(1.12471)"/><circle cx="1026.92" cy="932.128" r="155.595" transform="rotate(45 1348.021 1519.938) scale(1.12471)"/><circle cx="1026.92" cy="932.128" r="155.595" transform="rotate(45 503.047 1169.937) scale(1.12471)"/></svg>